<?xml version="1.0" encoding="utf-8"?>
<!-- Generator: Adobe Illustrator 19.2.1, SVG Export Plug-In . SVG Version: 6.00 Build 0)  -->
<svg version="1.1" id="layer" xmlns="http://www.w3.org/2000/svg" xmlns:xlink="http://www.w3.org/1999/xlink" x="0px" y="0px"
	 viewBox="0 0 652 652" style="enable-background:new 0 0 652 652;" xml:space="preserve">
<style type="text/css">
	.st0{fill:#343E45;}
	.st1{fill:#B2E522;}
</style>
<path class="st0" d="M474.7,289.2c0-3.7,3-6.6,7-6.6c4.2,0,7.1,3,7.1,6.6s-3,6.6-7.1,6.6C477.7,295.9,474.7,292.7,474.7,289.2z
	 M486.7,303.6c0.3,0,0.5,0.3,0.5,0.5v43.1c0,0.3-0.3,0.5-0.5,0.5h-10c-0.3,0-0.5-0.3-0.5-0.5v-43.1c0-0.3,0.3-0.5,0.5-0.5H486.7z
	 M122,337.1l34.2-43.5c0.1-0.1,0-0.4-0.3-0.4h-33c-0.3,0-0.5-0.3-0.5-0.5v-9.4c0-0.3,0.3-0.5,0.5-0.5h49c0.3,0,0.5,0.3,0.5,0.5v9.7
	c0,0.1,0,0.3-0.1,0.4l-34.6,43.5c-0.1,0.1,0,0.4,0.3,0.4H172c0.3,0,0.5,0.3,0.5,0.5v9.4c0,0.3-0.3,0.5-0.5,0.5h-49.6
	c-0.3,0-0.5-0.3-0.5-0.5v-9.7C121.9,337.4,122,337.2,122,337.1z M253,283.2c0-0.3,0.3-0.5,0.5-0.5H274c18.8,0,26,6.8,26,18.6
	c0,12.2-8.8,17.2-14.6,17.9c-0.1,0-0.3,0.1-0.1,0.3l16.6,27.7c0.1,0.3,0,0.7-0.4,0.7h-12.9c-0.3,0-0.5-0.1-0.5-0.4l-14.8-27
	c-0.1-0.1-0.3-0.3-0.4-0.3h-7.9c-0.1,0-0.3,0.1-0.3,0.3v26.8c0,0.3-0.3,0.5-0.5,0.5h-10.5c-0.3,0-0.5-0.3-0.5-0.5v-64.1H253z
	 M274.4,310.1c8.5,0,14.1-1.9,14.1-9c0-6-4-8.6-13.8-8.6H265c-0.1,0-0.3,0.1-0.3,0.3v17.1c0,0.1,0.1,0.3,0.3,0.3H274.4L274.4,310.1z
	 M383.8,316.4c-0.3,0.3-0.5,0.3-0.8,0c-1.2-1.1-4.4-4-8.6-4c-4.9,0-12.3,3.3-12.3,13.3c0,10.3,8.1,13.3,12.6,13.3
	c4.1,0,7.5-2.6,8.5-3.7c0.3-0.3,0.5-0.3,0.8,0l6.6,7.1c0.3,0.3,0.1,0.5,0,0.8c-3.3,3-8.5,5.7-15.5,5.7c-11.2,0-24-7.3-24-23.1
	c0-15.5,12-23.1,24-23.1c6.6,0,11.6,2.6,15.6,6.3c0.3,0.3,0.3,0.5,0,0.8L383.8,316.4L383.8,316.4z M313.3,329.6
	c-0.1,0-0.3,0.1-0.3,0.3c0.5,5.1,6,10.1,11.8,10.1c6,0,8.9-2.5,11.5-5.6c0.1-0.3,0.5-0.3,0.7-0.1l7,5.3c0.3,0.1,0.3,0.5,0.1,0.8
	c-4.5,5.2-10.3,8.4-18.3,8.4c-12.7,0-24-8.6-24-23.1c0-14,10.5-23.1,23.3-23.1c12,0,21.4,10.1,21.4,24v2.5c0,0.3-0.3,0.5-0.5,0.5
	L313.3,329.6L313.3,329.6z M335.3,321.2c0.1,0,0.3-0.1,0.3-0.3c0-5.3-4.8-10.3-10.8-10.3c-6,0-11,3.7-11.6,10.1
	c0,0.1,0.1,0.3,0.3,0.3L335.3,321.2z M539.8,329.6c-0.1,0-0.3,0.1-0.3,0.3c0.5,5.1,6,10.1,11.8,10.1c6,0,8.9-2.5,11.5-5.6
	c0.1-0.3,0.5-0.3,0.7-0.1l7,5.3c0.3,0.1,0.3,0.5,0.1,0.8c-4.5,5.2-10.3,8.4-18.3,8.4c-12.7,0-24-8.6-24-23.1
	c0-14,10.5-23.1,23.3-23.1c12,0,21.4,10.1,21.4,24v2.5c0,0.3-0.3,0.5-0.5,0.5L539.8,329.6L539.8,329.6z M561.9,321.2
	c0.1,0,0.3-0.1,0.3-0.3c0-5.3-4.8-10.3-10.8-10.3s-11,3.7-11.6,10.1c0,0.1,0.1,0.3,0.3,0.3L561.9,321.2L561.9,321.2z M396.8,303.6
	h8.6c0.3,0,0.5,0.1,0.5,0.4l1.2,6.6h0.1c4.7-9,15.6-7.7,16.6-7.5c0.3,0,0.4,0.3,0.4,0.8v8.5c0,0.3-0.3,0.5-0.5,0.5
	c0,0-2.1-0.4-3.8-0.4c-7.1,0-12.2,6.4-12.7,15.1v19.6c0,0.3-0.3,0.5-0.5,0.5h-10c-0.3,0-0.5-0.3-0.5-0.5v-43
	C396.2,303.8,396.5,303.6,396.8,303.6L396.8,303.6z M579.4,303.6h8.6c0.3,0,0.5,0.1,0.5,0.4l1.2,6.6h0.1c4.7-9,15.6-7.7,16.6-7.5
	c0.3,0,0.4,0.3,0.4,0.8v8.5c0,0.3-0.3,0.5-0.5,0.5c0,0-2.1-0.4-3.8-0.4c-7.1,0-12.2,6.4-12.7,15.1v19.6c0,0.3-0.3,0.5-0.5,0.5h-10
	c-0.3,0-0.5-0.3-0.5-0.5v-43C578.9,303.8,579.1,303.6,579.4,303.6L579.4,303.6z M493,312.5v-8.4c0-0.3,0.3-0.5,0.5-0.5h8.4
	c0.1,0,0.3-0.1,0.3-0.3v-8.1c0-0.3,0.1-0.4,0.4-0.5l10-3.7c0.4-0.1,0.7,0.1,0.7,0.5v11.8c0,0.1,0.1,0.3,0.3,0.3h11.4
	c0.3,0,0.5,0.3,0.5,0.5v8.4c0,0.3-0.3,0.5-0.5,0.5h-11.4c-0.1,0-0.3,0.1-0.3,0.3v19c0,3.8,0.7,7.1,6.2,7.1c2.1,0,4.1-0.4,5.5-1
	c0.3-0.1,0.5,0.1,0.5,0.4v8.1c0,0.3-0.1,0.5-0.4,0.7c-1.8,0.8-5.2,1.2-8.4,1.2c-5.3,0-8.9-1.1-11-3.1c-1.9-1.9-3.4-4.9-3.4-12.5v-20
	c0-0.1-0.1-0.3-0.3-0.3h-8.4C493.3,313,493,312.7,493,312.5L493,312.5z M448.5,339.3c-4.4,0-8.1-2.7-8.2-7.7v-27.5
	c0-0.3-0.3-0.5-0.5-0.5h-10c-0.3,0-0.5,0.3-0.5,0.5v26.3c0,10.8,8.1,18.5,19.2,18.5h0.3c11.1,0,19.2-7.7,19.2-18.5v-26.3
	c0-0.3-0.3-0.5-0.5-0.5h-10c-0.3,0-0.5,0.3-0.5,0.5v27.5C456.6,336.6,452.9,339.3,448.5,339.3L448.5,339.3z M210.7,342.4
	c0-0.1,0.3-0.3,0.4-0.1c2.9,3.7,8.6,6.6,14.9,6.6c10.7,0,21.4-8.4,21.4-23.1c0-15.7-10.7-23.1-21.8-23.1c-7,0-12.3,3.4-15.1,7.5
	c-0.1,0.1-0.3,0.1-0.4-0.1l-1.2-5.9c0-0.3-0.3-0.4-0.5-0.4h-8.1c-0.3,0-0.5,0.3-0.5,0.5v64.1c0,0.3,0.3,0.5,0.5,0.5h10
	c0.3,0,0.5-0.3,0.5-0.5v-25.9H210.7z M224.7,338.9c-7.3,0-13-4.9-13-13.3c0-8.4,5.7-13.3,13-13.3c4.2,0,11.9,2.9,11.9,13.3
	S228.7,338.9,224.7,338.9z M178.3,289.2c0-3.7,3-6.6,7-6.6c4.2,0,7.1,3,7.1,6.6s-3,6.6-7.1,6.6C181.3,295.9,178.3,292.7,178.3,289.2
	z M190.3,303.6c0.3,0,0.5,0.3,0.5,0.5v43.1c0,0.3-0.3,0.5-0.5,0.5h-10c-0.3,0-0.5-0.3-0.5-0.5v-43.1c0-0.3,0.3-0.5,0.5-0.5
	C180.4,303.6,190.3,303.6,190.3,303.6z"/>
<path class="st1" d="M93.6,291.5c-0.8-0.3-1.8-0.1-2.7,0.1l-3.7,1.2v-34.4c0-1.8-1.5-3.3-3.3-3.3H35.2c-1.8,0-3.3,1.5-3.3,3.3V293
	l-3.7-1.2c-1-0.3-1.9-0.4-2.7-0.1c-1.4,0.3-4.4,1.6-4.4,7v28.7c0.4,2.5,2.1,5.3,5.7,5.3h12.3c1.2,1.5,4.2,4,10,4.4
	c0.1,4.2,2.6,7.8,6.3,9.3v8.1c0,0.1-0.1,0.3-0.3,0.3c-17.2,0.5-28.2,6-31.3,7.8c-1.9,1.1-2.3,3.4-2.3,4.9v6.3c0.1,2.2,1.9,4,4.2,4
	c2.1,0,3.8-1.8,4-3.8c0.1-2.1-1.2-3.7-3.1-4.2c-0.1,0-0.3-0.1-0.3-0.3v-2.3c0-0.5,0.3-1.1,0.8-1.4c4.7-2.6,16.6-3.8,25.6-4.4h2.6
	c0.1,0,0.3,0.1,0.3,0.3c0.4,7.3,1.2,13.4,1.5,17.2h-0.3c-1.5,0-2.9,1.8-2.9,4.1c0,2.3,1.4,4.1,2.9,4.1h5.5c1.5,0,2.9-1.8,2.9-4.1
	c0-2.3-1.4-4.1-2.9-4.1h-0.3c0,0,1-10,1.5-17.2c0-0.1,0.1-0.3,0.3-0.3h2.6c9,0.4,20.9,1.8,25.6,4.4c0.5,0.3,0.8,0.8,0.8,1.4v2.3
	c0,0.1-0.1,0.3-0.3,0.3c-1.9,0.4-3.3,2.2-3.1,4.2c0.1,2.1,1.9,3.8,4,3.8c2.2,0,4.1-1.6,4.2-4v-6.3c0-1.5-0.4-3.7-2.3-4.9
	c-3.1-1.8-14.2-7.3-31.3-7.9c-0.1,0-0.3-0.1-0.3-0.3v-8.1c3.7-1.5,6.2-5.1,6.3-9.3c5.6-0.4,8.6-3,10-4.4h12.3c3.7,0,5.3-2.9,5.7-5.3
	v-28.7C97.9,293.2,94.9,291.9,93.6,291.5z M32,321.4l-5.6,4.2c-0.1,0.1-0.3,0-0.3-0.1v-27c0-1.1,0.1-2.5,0.7-2.3l4.9,1.6
	c0.1,0,0.3,0.3,0.3,0.4C32,298.2,32,321.4,32,321.4z M92.9,325.6l-5.6-4.2v-23c0-0.1,0.1-0.3,0.3-0.4l4.9-1.6
	c0.7-0.1,0.7,1.2,0.7,2.3v27C93.2,325.6,93,325.7,92.9,325.6z"/>
<path class="st0" d="M608,297.3c0-1,0.1-1.8,0.5-2.6s0.8-1.5,1.4-2.1c0.5-0.5,1.2-1.1,2.1-1.4c0.8-0.4,1.6-0.5,2.6-0.5
	c1,0,1.8,0.1,2.6,0.5s1.5,0.8,2.1,1.4s1.1,1.2,1.4,2.1s0.5,1.6,0.5,2.6c0,1-0.1,1.8-0.5,2.6c-0.4,0.8-0.8,1.5-1.4,2.1
	s-1.2,1.1-2.1,1.4c-0.8,0.4-1.6,0.5-2.6,0.5c-1,0-1.8-0.1-2.6-0.5s-1.5-0.8-2.1-1.4c-0.5-0.5-1.1-1.2-1.4-2.1
	C608.1,299,608,298.1,608,297.3z M609.2,297.3c0,0.7,0.1,1.5,0.4,2.1c0.3,0.7,0.7,1.2,1.2,1.8s1.1,0.8,1.8,1.2
	c0.7,0.4,1.4,0.4,2.1,0.4c0.7,0,1.5-0.1,2.1-0.4c0.5-0.3,1.2-0.7,1.8-1.2s0.8-1.1,1.2-1.8c0.3-0.7,0.4-1.4,0.4-2.1
	c0-0.7-0.1-1.5-0.4-2.1c-0.3-0.5-0.7-1.2-1.2-1.8s-1.1-0.8-1.8-1.2s-1.4-0.4-2.1-0.4c-0.7,0-1.5,0.1-2.1,0.4
	c-0.5,0.3-1.2,0.7-1.8,1.2s-0.8,1.1-1.2,1.8C609.2,295.9,609.2,296.4,609.2,297.3z"/>
<path class="st0" d="M612,293.4h2.5c2.2,0,3,0.8,3,2.2s-1,2.1-1.6,2.1l1.9,3.1v0.1h-1.5l-1.8-3.1h-1v3.1h-1.2v-7.5H612z
	 M614.4,296.6c1,0,1.6-0.3,1.6-1.1c0-0.7-0.4-1-1.6-1h-1.1v1.9h1.1V296.6z"/>
</svg>
