<?xml version="1.0" encoding="utf-8"?>
<!-- Generator: Adobe Illustrator 19.0.0, SVG Export Plug-In . SVG Version: 6.00 Build 0)  -->
<svg version="1.1" id="GoogleLogo_x5F_FullColor_x5F_rgb_21_"
	 xmlns="http://www.w3.org/2000/svg" xmlns:xlink="http://www.w3.org/1999/xlink" x="0px" y="0px" width="269.65px"
	 height="88.76px" viewBox="0 0 269.65 88.76" enable-background="new 0 0 269.65 88.76" xml:space="preserve">
<g id="_x32_70x89px">
	<path fill="#4285F4" d="M34.94,40.94v-9.41h31.71c0.31,1.64,0.47,3.58,0.47,5.68c0,7.06-1.93,15.79-8.15,22.01
		c-6.05,6.3-13.78,9.66-24.02,9.66C15.96,68.88,0,53.42,0,34.44C0,15.46,15.96,0,34.94,0c10.5,0,17.98,4.12,23.6,9.49l-6.64,6.64
		c-4.03-3.78-9.49-6.72-16.97-6.72c-13.86,0-24.7,11.17-24.7,25.03c0,13.86,10.84,25.03,24.7,25.03c8.99,0,14.11-3.61,17.39-6.89
		c2.66-2.66,4.41-6.46,5.1-11.65L34.94,40.94z"/>
	<path fill="#E94235" d="M115.4,46.7c0,12.77-9.99,22.18-22.25,22.18c-12.26,0-22.25-9.41-22.25-22.18
		c0-12.85,9.99-22.18,22.25-22.18C105.41,24.53,115.4,33.85,115.4,46.7z M105.66,46.7c0-7.98-5.79-13.44-12.51-13.44
		c-6.72,0-12.51,5.46-12.51,13.44c0,7.9,5.79,13.44,12.51,13.44C99.87,60.14,105.66,54.6,105.66,46.7z"/>
	<path fill="#FABB05" d="M163.4,46.7c0,12.77-9.99,22.18-22.25,22.18c-12.26,0-22.25-9.41-22.25-22.18
		c0-12.85,9.99-22.18,22.25-22.18C153.41,24.53,163.4,33.85,163.4,46.7z M153.66,46.7c0-7.98-5.79-13.44-12.51-13.44
		c-6.72,0-12.51,5.46-12.51,13.44c0,7.9,5.79,13.44,12.51,13.44C147.87,60.14,153.66,54.6,153.66,46.7z"/>
	<path fill="#4285F4" d="M209.4,25.87v39.82c0,16.38-9.66,23.07-21.08,23.07c-10.75,0-17.22-7.19-19.66-13.07l8.48-3.53
		c1.51,3.61,5.21,7.87,11.17,7.87c7.31,0,11.84-4.51,11.84-13v-3.19h-0.34c-2.18,2.69-6.38,5.04-11.68,5.04
		c-11.09,0-21.25-9.66-21.25-22.09c0-12.52,10.16-22.26,21.25-22.26c5.29,0,9.49,2.35,11.68,4.96h0.34v-3.61H209.4z M200.84,46.79
		c0-7.81-5.21-13.52-11.84-13.52c-6.72,0-12.35,5.71-12.35,13.52c0,7.73,5.63,13.36,12.35,13.36
		C195.63,60.14,200.84,54.52,200.84,46.79z"/>
	<path fill="#34A853" d="M224.65,2.53v65h-9.5v-65H224.65z"/>
	<path fill="#E94235" d="M261.67,54.01l7.56,5.04c-2.44,3.61-8.32,9.83-18.48,9.83c-12.6,0-22.01-9.74-22.01-22.18
		c0-13.19,9.49-22.18,20.92-22.18c11.51,0,17.14,9.16,18.98,14.11l1.01,2.52L240,53.42c2.27,4.45,5.8,6.72,10.75,6.72
		C255.71,60.14,259.15,57.71,261.67,54.01z M238.4,46.03l19.82-8.23c-1.09-2.77-4.37-4.7-8.23-4.7
		C245.04,33.1,238.15,37.46,238.4,46.03z"/>
</g>
</svg>
