<?xml version="1.0" encoding="UTF-8"?>
<!DOCTYPE svg PUBLIC "-//W3C//DTD SVG 1.1//EN" "http://www.w3.org/Graphics/SVG/1.1/DTD/svg11.dtd">
<!-- Creator: CorelDRAW 2018 (64-Bit) -->
<svg xmlns="http://www.w3.org/2000/svg" xml:space="preserve" width="516px" height="499px" version="1.1" style="shape-rendering:geometricPrecision; text-rendering:geometricPrecision; image-rendering:optimizeQuality; fill-rule:evenodd; clip-rule:evenodd"
viewBox="0 0 516 499.027"
 xmlns:xlink="http://www.w3.org/1999/xlink">
 <defs>
  <style type="text/css">
   <![CDATA[
    .fil0 {fill:#40BE46;fill-rule:nonzero}
   ]]>
  </style>
 </defs>
 <g id="Layer_x0020_1">
  <metadata id="CorelCorpID_0Corel-Layer"/>
  <path class="fil0" d="M229.193 327.508l-27.153 7.61c2.485,6.912 4.29,19.306 4.29,35.751l0 81.461 30.338 0 0 -86.228c5.652,-6.912 11.763,-10.249 18.556,-10.249 3.388,0 5.873,0.715 8.835,2.384l8.359 -28.107c-4.75,-2.145 -6.793,-2.622 -11.321,-2.622 -3.388,0 -7.457,0.715 -9.959,1.907 -5.652,2.86 -12.887,9.278 -17.195,15.475 -0.442,-6.912 -2.042,-12.376 -4.75,-17.382zm-105.328 -40.262l0 0 -3.303 0 0 165.084 31.699 0 0 -73.136 40.041 0 0 -27.154 -40.041 0 0 -37.879 50 0 1.941 -14.42c-30.064,-2.297 -57.371,-7.132 -80.337,-12.495zm-74.243 186.994l0 0 14.709 17.161c14.249,-5.721 32.125,-18.591 36.67,-38.833 1.583,-6.656 2.248,-10.963 2.248,-32.397l0 -132.551 -32.125 0 0 136.126c0,17.859 -0.681,24.533 -3.167,30.491 -2.945,6.673 -10.197,14.777 -18.335,20.003zm288.629 -83.606l0 0c0,28.822 -5.653,41.198 -18.778,41.198 -5.89,0 -12.683,-3.319 -15.39,-9.992 -2.486,-6.197 -3.847,-16.684 -3.847,-30.729 0,-12.156 1.123,-20.718 3.166,-27.154 2.486,-7.626 8.376,-12.394 15.611,-12.394 5.431,0 10.181,2.384 13.126,6.435 4.069,5.482 6.112,16.208 6.112,32.636zm18.556 47.412l0 0c9.959,-11.917 14.488,-26.217 14.488,-47.174 0,-19.782 -4.087,-33.112 -13.365,-44.552 -9.941,-12.377 -22.847,-18.335 -39.376,-18.335 -31.223,0 -52.043,25.485 -52.043,63.841 0,38.355 20.582,63.126 52.043,63.126 17.892,0 29.435,-6.436 38.253,-16.906zm86.908 -68.386l0 0c0,11.202 -6.571,17.399 -18.556,17.399 -10.64,0 -17.893,-5.005 -17.893,-17.399 0,-11.423 6.572,-18.097 18.114,-18.097 11.543,0 18.335,6.674 18.335,18.097zm53.627 -25.962l0 0 -12.666 -20.242c-7.014,6.674 -15.628,10.487 -23.987,10.487 -3.848,0 -5.891,-0.493 -14.267,-2.621 -8.376,-2.384 -14.249,-3.099 -20.82,-3.099 -29.657,0 -48.876,16.19 -48.876,41.216 0,18.097 8.137,29.299 24.888,33.827 -6.792,1.668 -14.266,5.227 -17.653,9.278 -2.486,2.86 -3.626,6.674 -3.626,11.202 0,3.813 0.902,7.151 2.264,10.01 1.583,2.622 3.847,4.767 6.571,5.942 5.431,2.162 14.266,3.592 27.835,3.813 7.014,0 11.321,0.239 12.904,0.239 8.376,0.477 12.666,1.907 15.833,3.591 3.166,1.89 5.43,6.181 5.43,10.948 0,4.766 -2.928,9.533 -7.235,12.393 -4.069,2.843 -10.641,4.035 -19.237,4.035 -14.046,0 -21.723,-5.227 -21.723,-14.999 0,-4.29 0.459,-5.244 1.345,-7.865l-28.056 0c-1.124,2.384 -2.724,5.72 -2.724,12.394 0,8.341 3.184,15.475 9.516,21.672 10.402,10.248 27.392,13.108 43.906,13.108 18.097,0 35.529,-4.29 45.709,-15.73 6.334,-7.151 9.279,-14.998 9.279,-25.247 0,-10.964 -3.167,-19.305 -9.959,-25.962 -8.138,-7.865 -17.416,-10.725 -35.07,-10.963l-16.31 -0.239c-3.166,0 -4.97,-1.192 -4.97,-2.86 0,-3.337 4.307,-6.197 12.002,-9.993 2.264,0.238 3.166,0.238 4.528,0.238 24.668,0 42.765,-15.254 42.765,-36.227 0,-8.087 -2.265,-14.284 -6.793,-20.004 3.848,0.477 4.988,0.715 7.916,0.715 8.377,0 14.71,-2.622 21.281,-9.057zm-381.478 -199.83l0 0c-37.93,9.278 -63.705,27.427 -63.705,48.315 0,12.921 9.891,24.787 26.388,34.151 -4.955,-7.934 -7.662,-16.275 -7.662,-24.89 0,-21.723 16.82,-41.692 44.979,-57.576zm400.136 81.597l0 0c0,-13.687 -8.443,-26.387 -22.795,-36.806 1.294,4.171 2.026,8.444 2.026,12.785 0,39.224 -54.784,72.778 -132.432,86.687 8.768,0.988 17.893,1.532 27.256,1.532 69.561,0 125.945,-28.737 125.945,-64.198zm-44.756 -21.331l0 0c0,-14.385 -12.325,-27.716 -33.317,-38.713 4.92,5.958 7.594,12.309 7.594,18.897 0,34.763 -74.073,62.955 -165.442,62.955 -91.352,0 -165.424,-28.192 -165.424,-62.955 0,-4.427 1.209,-8.734 3.473,-12.887 -14.675,9.703 -23.051,20.854 -23.051,32.703 0,37.64 84.202,68.165 188.083,68.165 103.882,0 188.084,-30.525 188.084,-68.165zm-82.159 -1.685l0 0c-38.321,24.77 -156.384,34.116 -207.236,2.349 -39.853,-24.907 -26.182,-64.386 -140.177,-151.379 -14.897,-11.373 2.758,-23.442 13.926,-15.713 11.151,7.728 0.936,9.788 23.459,32.328 45.472,45.506 45.029,4.597 52.213,20.072 15.101,32.533 48.418,65.304 48.418,65.304 33.384,21.723 60.027,26.457 109.244,-6.843 31.222,-21.127 18.454,33.589 95.011,-5.839 27.92,-14.386 26.762,-4.852 55.142,-44.4 11.781,-16.428 34.304,12.616 8.767,16.651 -10.214,1.616 -27.46,12.785 -34.865,30.439 -10.453,26.098 -5.925,45.42 -23.902,57.031zm-212.785 -66.906l0 0c-9.466,-4.17 -19.374,-20.292 -23.239,-26.762 10.59,-10.367 6.3,-27.715 0.323,-37.249 -5.975,-9.516 -13.227,-6.809 -21.177,-15.56 -7.951,-8.75 2.996,-31.562 13.194,-14.027 38.168,65.678 63.227,38.355 94.416,34.44 29.928,-3.763 56.384,12.546 64.504,-33.624 1.328,-7.558 8.665,-9.362 9.415,3.133 0.766,12.479 5.448,42.884 21.893,46.817 16.462,3.915 29.52,-3.864 33.384,-8.172 3.848,-4.307 5.856,-3.694 7.559,7.014 1.685,10.725 5.857,25.519 28.959,9.04 47.258,-33.725 33.725,-46.766 52.093,-55.431 10.47,-4.937 26.949,11.116 3.116,23.17 -34.083,17.229 -37.692,38.628 -59.228,52.213 -36.193,22.863 -25.127,0.919 -83.367,-7.371 -22.421,-3.201 -29.639,21.808 -47.14,14.59 -40.381,-16.684 -68.556,-13.484 -94.705,7.779zm126.217 -121.739l0 0c1.328,9.856 2.979,9.618 6.52,10.537 3.524,0.903 8.001,-4.647 8.155,-10.027 0.153,-5.396 -2.299,-8.785 -7.627,-8.598 -5.312,0.205 -7.219,2.878 -7.048,8.088zm175.503 17.943l0 0c4.238,4.137 15.559,1.345 18.198,-1.617 6.776,-7.593 7.015,-12.173 3.524,-17.263 -3.507,-5.073 -10.895,-4.154 -18.216,1.157 -7.303,5.295 -5.924,15.374 -3.506,17.723zm-3.184 50.153l0 0c-3.643,4.836 -3.745,8.257 -1.158,10.929 2.758,2.844 8.478,5.312 12.598,2.027 4.102,-3.252 4.102,-8.002 0.613,-12.19 -3.507,-4.187 -8.274,-4.187 -12.053,-0.766zm-359.739 -59.296l0 0c5.55,1.703 7.985,6.862 12.666,0.971 2.315,-2.91 2.537,-6.758 -0.527,-11.1 -1.941,-2.706 -10.947,-4.579 -14.778,-0.715 -3.83,3.865 -0.34,9.926 2.639,10.844zm-111.287 -3.319l0 0c9.942,6.094 16.463,15.322 23.954,7.082 2.519,-2.741 5.669,-7.933 0.237,-17.875 -3.966,-7.269 -17.041,-10.249 -21.654,-7.457 -4.614,2.775 -10.248,13.518 -2.537,18.25zm91.88 47.157l0 0c3.166,3.286 8.546,3.014 11.764,1.243 3.2,-1.805 2.536,-6.775 -0.545,-11.117 -1.924,-2.707 -7.661,-3.966 -11.492,-0.102 -3.83,3.864 -1.94,7.679 0.273,9.976z"/>
 </g>
</svg>
