<svg height="140" viewBox="0 0 570 140" width="570" xmlns="http://www.w3.org/2000/svg"><path d="m30 30h80v80h-80z"/><g fill="#fff"><path d="m40 95h30v5h-30z"/><path d="m37.84 55.05v-.05a15.45 15.45 0 0 1 15.78-15.6c5.41 0 8.68 1.47 11.82 4.13l-4.17 5a11.11 11.11 0 0 0 -7.87-3.05c-4.81 0-8.64 4.26-8.64 9.37v.15c0 5.5 3.78 9.54 9.12 9.54a10.6 10.6 0 0 0 6.23-1.8v-4.3h-6.66v-5.75h13.07v13.07a19.58 19.58 0 0 1 -12.86 4.77c-9.37 0-15.82-6.53-15.82-15.48z"/><path d="m69.59 55.09v-.09c0-8.56 6.76-15.58 16-15.58s16 6.93 16 15.49v.09c0 8.57-6.75 15.58-16 15.58s-16-6.93-16-15.49zm25.08 0v-.09a9.15 9.15 0 0 0 -9.12-9.47c-5.33 0-9 4.22-9 9.38v.09a9.15 9.15 0 0 0 9.12 9.46c5.33.01 9-4.21 9-9.37z"/></g><path d="m136.66 70.19v-.19c0-22.78 17.74-41.45 42-41.45 14.43 0 23.13 3.9 31.48 11l-11.1 13.4c-6.18-5.15-11.68-8.13-20.95-8.13-12.83 0-23 11.34-23 25v.18c0 14.66 10.08 25.42 24.28 25.42 6.41 0 12.13-1.6 16.6-4.81v-11.49h-17.75v-15.23h34.78v34.81a52.06 52.06 0 0 1 -34.24 12.71c-24.93 0-42.1-17.52-42.1-41.22z"/><path d="m219.11 79.69v-.23c0-17.63 14.19-31.94 33.31-31.94s33.09 14.08 33.09 31.72v.22c0 17.64-14.19 32-33.31 32s-33.09-14.13-33.09-31.77zm49.23 0v-.23c0-9-6.53-16.94-16.14-16.94-10 0-15.92 7.67-15.92 16.72v.22c0 9.05 6.53 17 16.14 17 9.97-.05 15.92-7.72 15.92-16.77z"/><path d="m290.41 29.89h17.59v64.11h40v16h-57.59z"/><path d="m351 92.4v-.23c0-13.39 10.2-19.58 24.74-19.58a43.58 43.58 0 0 1 15 2.52v-1c0-7.21-4.47-11.22-13.17-11.22a45.19 45.19 0 0 0 -16.95 3.32l-4.33-13.31a54.14 54.14 0 0 1 23.82-4.9c9.5 0 16.37 2.52 20.72 6.87 4.58 4.58 6.64 11.33 6.64 19.58v35.55h-16.83v-6.65c-4.23 4.7-10.07 7.79-18.55 7.79-11.56.04-21.09-6.6-21.09-18.74zm40-4v-3.1a27 27 0 0 0 -11.12-2.3c-7.44 0-12 3-12 8.48v.23c0 4.69 3.89 7.44 9.5 7.44 8.11.01 13.62-4.46 13.62-10.75z"/><path d="m415.07 48.66h17.41v8.71c4-5.16 9.16-9.85 18-9.85 13.17 0 20.84 8.7 20.84 22.78v39.7h-17.4v-34.2c0-8.24-3.89-12.48-10.53-12.48s-10.88 4.24-10.88 12.48v34.2h-17.44z"/><path d="m477.26 79.46v-.22c0-20.5 13.4-31.72 27.94-31.72 9.28 0 15 4.24 19.12 9.16v-30.23h17.41v83.55h-17.41v-8.82c-4.23 5.72-10.07 10-19.12 10-14.31 0-27.94-11.18-27.94-31.72zm47.29 0v-.22c0-10.2-6.75-16.95-14.88-16.95s-15 6.64-15 16.95v.22c0 10.19 6.87 17 15 17s14.88-6.81 14.88-17z"/><path d="m0 0h570v140h-570z" fill="none"/></svg>