<svg id="Layer_1" data-name="Layer 1" xmlns="http://www.w3.org/2000/svg" xmlns:xlink="http://www.w3.org/1999/xlink" viewBox="0 0 742.41 240"><defs><style>.cls-1{fill:#383838;}.cls-2{fill:#fff;}.cls-3{fill:url(#linear-gradient);}.cls-4{fill:url(#radial-gradient);}</style><linearGradient id="linear-gradient" x1="121.63" y1="26.77" x2="121.63" y2="124.02" gradientUnits="userSpaceOnUse"><stop offset="0" stop-color="#136342"/><stop offset="0.17" stop-color="#176846" stop-opacity="0.94"/><stop offset="0.39" stop-color="#227653" stop-opacity="0.78"/><stop offset="0.65" stop-color="#358e68" stop-opacity="0.5"/><stop offset="0.92" stop-color="#4fae85" stop-opacity="0.12"/><stop offset="1" stop-color="#57b98e" stop-opacity="0"/></linearGradient><radialGradient id="radial-gradient" cx="56.96" cy="119.93" r="158.78" gradientTransform="translate(113.63 201.21) rotate(-179.8) scale(1 0.68)" gradientUnits="userSpaceOnUse"><stop offset="0" stop-color="#57b98e"/><stop offset="1" stop-color="#136342"/></radialGradient></defs><path class="cls-1" d="M527.79,176.49H511.35v-9.05c-6.75,7.06-16.47,11.14-28.24,11.14-20.39,0-38.58-16.47-38.58-41.1,0-24.47,18.19-41.09,38.58-41.09,11.77,0,21.49,4.08,28.24,11.13V98.58h16.44Zm-17-39c0-15.93-12.41-26-25-26-13.94,0-24.81,10.11-24.81,26,0,16.09,10.87,26,24.81,26C498.34,163.52,510.75,153.57,510.75,137.48Z"/><path class="cls-1" d="M723.57,176.51H707.13v-9.07c-6.74,7.06-16.46,11.14-28.23,11.14-20.39,0-38.58-16.47-38.58-41.1,0-24.47,18.19-41.09,38.58-41.09,11.77,0,21.49,4.08,28.23,11.13V61.42h16.44Zm-17-39c0-15.93-12.41-26-25-26-13.94,0-24.82,10.11-24.82,26,0,16.09,10.88,26,24.82,26C694.13,163.52,706.54,153.57,706.54,137.48Z"/><path class="cls-1" d="M623.87,129.11v47.38H607.43V132.44c0-12.83-7.44-21.38-18.68-21.38-14.1,0-23.44,9.5-23.44,29.29v36.14H548.87V98.58h16.44v9.16c6.34-7.6,15.52-11.88,27.24-11.88C611.39,95.86,623.87,109.48,623.87,129.11Z"/><path class="cls-1" d="M295.93,61.42H279.49V176.49h16.44Z"/><path class="cls-1" d="M360,132l-18.68-4.12c-7-1.58-9.51-4.43-9.51-8.87,0-5.54,4.28-10.29,13.94-10.29,10.13,0,16.62,5.23,17.89,12.83h16.43c-1.42-16.74-16.39-26-33.85-26-18.84,0-30.85,10.31-30.85,24.87,0,11.09,7.58,18.36,21.2,21.36l17.1,3.49c7.28,1.58,10.61,4.59,10.61,9.34,0,6.18-6,10.45-15.52,10.45-10.3,0-18.79-4-19.9-13.3H312.44c.06.92-.82,26.76,34.91,26.76,19.64,0,33.36-8.89,33.36-25.36C380.71,142.14,372.69,134.72,360,132Z"/><path class="cls-1" d="M434.13,160.05v0c-6.15,0-10.95-.12-15.72-4.89s-4.85-9.68-4.85-15.92V61.42H397.12v78c0,10.16,1.2,18.9,9.74,27.44,8.14,8.14,16.85,9.67,26.54,9.63h4.84V160.05Z"/><circle class="cls-2" cx="121.63" cy="120" r="102.79"/><path class="cls-3" d="M35.15,135.65c.26-4.43,2.07-8.94,5.59-11.64,4.18-3.2,9.86-3.36,15.13-3.39q32.88-.18,65.76-.16t65.77.16c5.26,0,10.94.19,15.12,3.39,3.53,2.7,5.33,7.21,5.6,11.64A32.18,32.18,0,0,1,206.38,147a88.93,88.93,0,1,0-169.49,0A32,32,0,0,1,35.15,135.65Z"/><path class="cls-4" d="M208.12,135.65c-.27-4.43-2.07-8.94-5.6-11.64-4.18-3.2-9.86-3.36-15.12-3.39q-32.9-.18-65.77-.16t-65.76.16c-5.27,0-10.95.19-15.13,3.39-3.52,2.7-5.33,7.21-5.59,11.64s.86,8.83,2.29,13a88.9,88.9,0,0,0,119.93,52.85,90.11,90.11,0,0,0,48.46-52.85C207.25,144.48,208.38,140.08,208.12,135.65Z"/></svg>