<svg xmlns="http://www.w3.org/2000/svg" width="591.747" height="173.373" viewBox="0 0 591.74664 173.37334"><g><g><path fill="#75b82c" d="M.74 55.2l25.58 48.74c1.75 3.32 6.06 6.02 9.62 6l52.2-.1c3.56 0 5.03-2.7 3.28-6.03l-25.6-48.73c-1.73-3.33-6.04-6.02-9.6-6l-52.2.1c-.08 0-.16 0-.24 0C.4 49.3-.97 51.95.74 55.2"/><path fill="#75b82c" d="M99.9 112l15.48 28.9c1.06 1.98 3.63 3.56 5.76 3.54l31.1-.33c2.12 0 2.98-1.63 1.93-3.6l-15.5-28.9c-1.05-2-3.63-3.57-5.75-3.54l-31.1.32c-.04 0-.07 0-.1 0-2.05.08-2.87 1.67-1.83 3.62"/><path fill="#3d90d5" d="M100.07 2.2l-31.1 39.92c-2.12 2.73-2.4 7.62-.63 10.93l26 48.52c1.77 3.3 4.93 3.8 7.05 1.07l31.1-39.92c2.1-2.72 2.4-7.62.62-10.93l-26-48.53c-1.02-1.92-2.5-2.88-4-2.83-1.08.04-2.16.62-3.05 1.77"/><path fill="#3d90d5" d="M92.8 112.48l-18.55 23.78c-1.27 1.63-1.43 4.54-.38 6.5l15.5 28.93c1.06 1.96 2.94 2.24 4.2.62l18.53-23.78c1.27-1.63 1.43-4.55.38-6.5l-15.5-28.93c-.6-1.13-1.5-1.7-2.38-1.68-.64.03-1.3.37-1.8 1.06"/><path fill="#3d90d5" d="M432.8 120.95h10.37V42.78H432.8z"/><path fill="#75b82c" d="M246.76 67.48c-14.9 0-26.96 12.07-26.96 26.96h-.02v49.8h10.4v-49.8h.04c0-9.2 7.46-16.68 16.67-16.68 9.2 0 16.67 7.47 16.67 16.68 0 9.2-7.47 16.68-16.68 16.68-5.2 0-9.85-2.38-12.9-6.1v13.17c3.8 2.04 8.15 3.2 12.76 3.2 14.9 0 26.97-12.07 26.97-26.96 0-14.9-12.07-26.96-26.97-26.96"/><path fill="#75b82c" d="M305.3 67.48c-14.9 0-26.98 12.07-26.98 26.96h-.02v49.8h10.4v-49.8h.04c0-9.2 7.46-16.68 16.67-16.68 9.23 0 16.7 7.47 16.7 16.68 0 9.2-7.47 16.68-16.7 16.68-5.18 0-9.82-2.38-12.88-6.1v13.17c3.8 2.04 8.15 3.2 12.77 3.2 14.88 0 26.95-12.07 26.95-26.96 0-14.9-12.07-26.96-26.96-26.96"/><path fill="#75b82c" d="M186.47 42.78c-14.9 0-26.96 12.07-26.96 26.96v51.2h10.4v-51.2c0-9.15 7.42-16.56 16.58-16.56 9.15 0 16.56 7.4 16.56 16.56v5.87H176.4V86h26.67v34.95h10.4v-51.2c0-14.9-12.08-26.97-26.98-26.97"/><path fill="#3d90d5" d="M398.1 69.74c0-9.15 7.43-16.57 16.6-16.57h13.07v-10.4H414.7c-14.9 0-26.97 12.08-26.97 26.97v51.2h10.38v-33.9h28.7V76.68h-28.7v-6.93"/><path fill="#3d90d5" d="M486.64 67.82v32.64c-.14 6.56-5.48 11.85-12.1 11.85-6.6 0-11.94-5.28-12.07-11.84V67.82h-10.4v32.67h.02c.12 10.5 7.44 19.24 17.26 21.57v22.16h10.38v-22.16c9.82-2.33 17.15-11.08 17.27-21.58h.02V67.8h-10.38"/><path fill="#3d90d5" d="M545.02 98.53c-1.06 4.18-3.73 7.94-7.77 10.27-7.92 4.58-18.06 1.86-22.64-6.06-4.57-7.94-1.85-18.07 6.08-22.65 6.35-3.68 14.12-2.65 19.3 1.98l-23.3 13.46 5.18 9 10.8-6.23 21.82-12.6c-.56-1.6-1.27-3.2-2.16-4.74-7.44-12.9-23.94-17.3-36.84-9.87-12.9 7.44-17.3 23.93-9.86 36.83 7.44 12.9 23.93 17.3 36.83 9.87 7.37-4.26 11.97-11.47 13.16-19.27h-10.58"/><path fill="#3d90d5" d="M588.17 67.48c-6.26 0-12 2.13-16.58 5.7v-5.46h-10.4v53.23h10.4v-26.5c0-9.16 7.42-16.58 16.57-16.58h2.1v-10.4h-2.1"/><path fill="#75b82c" d="M371.66 96.26L345.83 84.2c-1.24-.6-1.77-2.1-1.18-3.37.43-.93 1.35-1.46 2.3-1.46v-.03h29.48V68.96h-29.47c-4.88.02-9.54 2.77-11.74 7.48-3.02 6.46-.23 14.14 6.22 17.18l25.83 12.05c1.3.6 1.84 2.13 1.24 3.4-.42.95-1.35 1.5-2.32 1.48v.02h-30.2v10.38h30.2c4.88-.02 9.54-2.77 11.74-7.48 3.03-6.48.22-14.2-6.26-17.2"/></g></g></svg>