<?xml version="1.0" encoding="utf-8"?>
<!-- Generator: Adobe Illustrator 23.0.1, SVG Export Plug-In . SVG Version: 6.00 Build 0)  -->
<svg version="1.1" id="Layer_1" xmlns="http://www.w3.org/2000/svg" xmlns:xlink="http://www.w3.org/1999/xlink" x="0px" y="0px"
	 width="351.5px" height="353.7px" viewBox="0 0 351.5 353.7" style="enable-background:new 0 0 351.5 353.7;" xml:space="preserve"
	>
<style type="text/css">
	.st0{fill:#1DBF73;}
	.st1{fill:#FFFFFF;}
</style>
<circle class="st0" cx="175.3" cy="176.7" r="170.1"/>
<g>
	<path class="st1" d="M100.4,157.5c4.2,0,7.7-3.4,7.7-7.7c0-4.2-3.4-7.7-7.7-7.7c-4.2,0-7.7,3.4-7.7,7.7
		C92.7,154.1,96.1,157.5,100.4,157.5z"/>
	<g>
		<path class="st1" d="M108.3,162.6H73.1v-2.3c0-4.5,4.5-4.6,6.8-4.6c2.7,0,3.9,0.3,3.9,0.3v-12.6c0,0-2.4-0.4-5.6-0.4
			c-7.4,0-21.1,2-21.1,17.6v1.9h-6.5v11.6h6.5v24.5h-6v11.5h29v-11.5h-7v-24.5h19.3v24.5h-6v11.5h28v-11.5h-6V162.6z"/>
		<path class="st1" d="M168.4,162.6h-25.3v11.6h4.2l-5.4,17.2c-1,2.9-1.3,6.3-1.3,6.3h-0.4c0,0-0.3-3.4-1.3-6.3l-5.4-17.2h4.2v-11.6
			h-25.3v11.6h5.4l13.2,36h18.8l13.2-36h5.4V162.6z"/>
		<path class="st1" d="M215.3,184.5c0-13.2-7.9-23-22.2-23c-15.3,0-24.8,10.9-24.8,24.9c0,12.7,9.1,24.9,26.1,24.9
			c12.8,0,20.5-6.7,20.5-6.7l-5.8-11.1c0,0-6.4,4.5-13.4,4.5c-5.1,0-9.9-2.7-11.1-8.8h30.2C214.9,189.3,215.3,186.1,215.3,184.5z
			 M185.1,180.5c0.8-3.7,3-7,7.7-7c3.5,0,6,3.2,6,7H185.1z"/>
		<path class="st1" d="M283,173.6h-0.2c0,0,0.2-0.9,0.2-2.4v-2.5c0-4.3-2.4-6.1-6.7-6.1h-15.1v11.6h4.4c1.3,0,2,0.7,2,2v22.4h-6.5
			v11.5h28.9v-11.5h-6.5v-6.9c0-8.7,4.2-14.3,13.1-14.3c1.9,0,3.2,0.3,3.2,0.3V162c0,0-0.9-0.2-1.8-0.2
			C291,161.8,285,167.1,283,173.6z"/>
		<path class="st1" d="M240.7,173.6h-0.2c0,0,0.2-0.9,0.2-2.4v-2.5c0-4.3-2.4-6.1-6.7-6.1h-15.1v11.6h4.4c1.3,0,2,0.7,2,2v22.4h-6.5
			v11.5h28.9v-11.5h-6.5v-6.9c0-8.7,4.2-14.3,13.1-14.3c1.9,0,3.2,0.3,3.2,0.3V162c0,0-0.9-0.2-1.8-0.2
			C248.7,161.8,242.7,167.1,240.7,173.6z"/>
	</g>
</g>
</svg>
